<svg xmlns="http://www.w3.org/2000/svg" id="icon-newsletter" viewBox="-1 -1 102 102" width="100%" height="100%"><g id="elnewsletter"><path class="elst0" d="M97.5 90.3V33.6c0-.5-.4-1-1-1H82.9V9.8c0-.5-.4-1-1-1H18.1a1 1 0 0 0-1 1v22.8H3.5a1 1 0 0 0-1 1v56.9c0 .1.1.1.1.2v.1c0 .1.1.1.2.1.1.1.2.1.2.1.1 0 .1 0 .2.1h93.4c.1 0 .3 0 .4-.1 0 0 .1 0 .1-.1.1-.1.2-.1.2-.2v-.1c0-.1.1-.1.1-.2.1 0 .1 0 .1-.1zm-1.9-55.7v53.6L63.9 64.1l18.6-17.7 7.7-7.4c.3-.3.4-.7.2-1.1-.1-.4-.5-.6-.9-.6h-6.8v-2.7h12.9zM50.2 56.1l43.4 33.1H6.4l43.8-33.1zm32.7-16.8h4.4l-4.4 4.1v-4.1zM19.1 10.8h61.8v34.5L62.4 62.9l-11.6-8.8c-.3-.3-.8-.3-1.2 0L37.8 63 19.1 45.3V10.8zm-2 32.6l-4.4-4.1h4.4v4.1zm0-8.8v2.7h-6.8c-.4 0-.8.2-.9.6-.1.4-.1.8.2 1.1l26.5 25.2-31.8 24V34.6h12.8z"></path><path class="elst0" d="M28.9 22.5h42.7a1 1 0 0 0 0-2H28.9c-.5 0-1 .4-1 1s.4 1 1 1zm0 10h42.7a1 1 0 0 0 0-2H28.9a1 1 0 0 0 0 2zm0 9.9h42.7a1 1 0 0 0 0-2H28.9c-.5 0-1 .4-1 1s.4 1 1 1z"></path></g></svg>