<svg xmlns="http://www.w3.org/2000/svg" viewBox="-1 -1 98 98"><path d="M58.7145 66.4634L48.4787 52.2823L51.9131 48.6281L64.7865 66.4634H58.7145Z"></path><path d="M39.4752 31.396L49.0656 44.6831L45.6362 48.3442L33.4032 31.396H39.4752Z"></path><path fill-rule="evenodd" clip-rule="evenodd" d="M49 96.5C75.2335 96.5 96.5 75.2335 96.5 49C96.5 22.7665 75.2335 1.5 49 1.5C22.7665 1.5 1.5 22.7665 1.5 49C1.5 75.2335 22.7665 96.5 49 96.5ZM56.2341 71.3042L45.1181 55.8582L30.601 71.3046H24.1289L42.2851 51.9217L24.1297 26.6943L41.9755 26.6948L52.3388 41.1888L65.9154 26.695L72.5268 26.6948L55.1758 45.1565L73.8715 71.3042H56.2341Z"></path></svg>