<svg xmlns="http://www.w3.org/2000/svg" viewBox="-1 -1 102 102"><path d="M43.6 57.7c5.3-2.7 10.5-5.4 15.7-8.2-5.3-2.8-10.5-5.5-15.7-8.2v16.4z"></path><path d="M50 2.5C23.8 2.5 2.5 23.8 2.5 50S23.8 97.5 50 97.5 97.5 76.2 97.5 50 76.2 2.5 50 2.5zm23.9 59.2c-.6 2.6-2.8 4.6-5.4 4.9-6.1.7-12.4.7-18.5.7-6.2 0-12.4 0-18.5-.7-2.6-.3-4.7-2.2-5.4-4.9-.9-3.8-.9-7.8-.9-11.7s0-8 .9-11.7c.6-2.6 2.8-4.6 5.4-4.9 6.1-.7 12.4-.7 18.5-.7 6.2 0 12.4 0 18.5.7 2.6.3 4.7 2.2 5.4 4.9.9 3.8.9 7.8.9 11.7s0 8-.9 11.7z"></path></svg>