<svg xmlns="http://www.w3.org/2000/svg" viewBox="-1 -1 102 102"><path d="M50 2.5C23.8 2.5 2.5 23.8 2.5 50S23.8 97.5 50 97.5 97.5 76.2 97.5 50 76.2 2.5 50 2.5zm4.9 58.1c-2.9 0-5.7-1.6-6.7-3.4l-1.9 7.5c-1.2 4.3-4.7 8.6-4.9 8.9-.2.2-.6.2-.7-.2-.1-.6-1-6 .1-10.4.5-2.2 3.5-14.9 3.5-14.9s-.9-1.7-.9-4.3c0-4 2.3-7.1 5.3-7.1 2.5 0 3.7 1.9 3.7 4.1 0 2.5-1.6 6.2-2.4 9.7-.7 2.9 1.4 5.3 4.3 5.3 5.2 0 8.6-6.6 8.6-14.5 0-6-4-10.5-11.3-10.5-8.3 0-13.4 6.2-13.4 13.1 0 2.4.7 4.1 1.8 5.3.5.6.6.8.4 1.5-.1.5-.4 1.7-.6 2.2-.2.7-.7.9-1.4.7-3.8-1.5-5.6-5.7-5.6-10.4 0-7.7 6.5-17 19.5-17 10.4 0 17.3 7.5 17.3 15.6 0 10.8-5.9 18.8-14.7 18.8z"></path></svg>